<?xml version="1.0" encoding="UTF-8"?>
<!DOCTYPE svg PUBLIC "-//W3C//DTD SVG 1.1//EN" "http://www.w3.org/Graphics/SVG/1.1/DTD/svg11.dtd">
<!-- Creator: CorelDRAW 2021.5 -->
<svg xmlns="http://www.w3.org/2000/svg" xml:space="preserve" width="59.9441mm" height="53.2554mm" version="1.1" style="shape-rendering:geometricPrecision; text-rendering:geometricPrecision; image-rendering:optimizeQuality; fill-rule:evenodd; clip-rule:evenodd"
viewBox="0 0 6744.91 5992.29"
 xmlns:xlink="http://www.w3.org/1999/xlink"
 xmlns:xodm="http://www.corel.com/coreldraw/odm/2003">
 <defs>
  <style type="text/css">
   <![CDATA[
    .fil0 {fill:black;fill-rule:nonzero}
   ]]>
  </style>
 </defs>
 <g id="Capa_x0020_1">
  <metadata id="CorelCorpID_0Corel-Layer"/>
  <g id="_1976961560736">
   <g>
    <path class="fil0" d="M2064.38 2459.78c-24.71,77.71 -107.77,120.67 -185.48,95.96 -77.71,-24.71 -120.67,-107.77 -95.96,-185.48l281.43 89.52zm1684.38 -1526.16l0 295.34 0 0 -73.72 1.51 -72.9 4.48 -72.05 7.39 -71.14 10.24 -70.16 13.03 -69.14 15.76 -68.09 18.44 -66.96 21.05 -65.79 23.62 -64.56 26.13 -63.28 28.57 -61.93 30.94 -60.51 33.28 -59.08 35.56 -57.54 37.76 -55.96 39.92 -54.34 42.03 -52.61 44.05 -50.87 46.03 -49.04 47.94 -47.16 49.8 -45.21 51.6 -43.22 53.36 -41.16 55.01 -39.02 56.62 -36.85 58.2 -34.62 59.69 -32.32 61.1 -29.95 62.5 -27.56 63.82 -25.07 65.07 -22.57 66.31 -281.43 -89.52 26.35 -77.45 29.3 -76.05 32.19 -74.56 34.99 -72.99 37.74 -71.38 40.41 -69.66 42.99 -67.89 45.55 -66.09 48 -64.17 50.4 -62.2 52.73 -60.18 54.99 -58.08 57.18 -55.91 59.31 -53.68 61.37 -51.37 63.36 -49 65.3 -46.58 67.15 -44.06 68.94 -41.5 70.66 -38.86 72.33 -36.14 73.9 -33.36 75.43 -30.52 76.88 -27.6 78.26 -24.61 79.56 -21.55 80.8 -18.42 81.95 -15.21 83.02 -11.95 84.02 -8.63 84.96 -5.22 85.79 -1.76 0 0zm0 0c81.55,0 147.67,66.12 147.67,147.67 0,81.55 -66.12,147.67 -147.67,147.67l0 -295.34zm2062.54 2062.54l-295.34 0 0 0 -2.3 -91.08 -6.84 -89.8 -11.23 -88.46 -15.53 -86.98 -19.74 -85.46 -23.8 -83.8 -27.76 -82.05 -31.63 -80.19 -35.38 -78.26 -39.02 -76.18 -42.53 -73.99 -45.96 -71.69 -49.29 -69.31 -52.48 -66.78 -55.57 -64.16 -58.53 -61.4 -61.4 -58.53 -64.16 -55.57 -66.78 -52.48 -69.31 -49.29 -71.69 -45.96 -73.99 -42.53 -76.18 -39.02 -78.26 -35.38 -80.19 -31.63 -82.05 -27.76 -83.8 -23.8 -85.46 -19.74 -86.98 -15.53 -88.46 -11.23 -89.8 -6.84 -91.08 -2.3 0 -295.34 105.98 2.68 104.7 7.97 103.2 13.12 101.61 18.14 99.84 23.04 97.91 27.8 95.91 32.44 93.72 36.96 91.38 41.32 88.96 45.55 86.39 49.67 83.68 53.66 80.83 57.49 77.9 61.21 74.8 64.8 71.62 68.25 68.25 71.62 64.8 74.8 61.21 77.9 57.49 80.83 53.66 83.68 49.67 86.39 45.55 88.96 41.32 91.38 36.96 93.72 32.44 95.91 27.8 97.91 23.04 99.84 18.14 101.61 13.12 103.2 7.97 104.7 2.68 105.98 0 0zm0 0c0,81.55 -66.12,147.67 -147.67,147.67 -81.55,0 -147.67,-66.12 -147.67,-147.67l295.34 0zm-2062.54 2062.54l0 -295.34 0 0 91.08 -2.3 89.8 -6.84 88.46 -11.23 86.98 -15.53 85.46 -19.74 83.8 -23.8 82.05 -27.76 80.19 -31.63 78.26 -35.38 76.18 -39.02 73.99 -42.53 71.69 -45.96 69.31 -49.29 66.78 -52.48 64.16 -55.57 61.4 -58.53 58.53 -61.4 55.57 -64.16 52.48 -66.78 49.29 -69.31 45.96 -71.69 42.53 -73.99 39.02 -76.18 35.38 -78.26 31.63 -80.19 27.76 -82.05 23.8 -83.8 19.74 -85.46 15.53 -86.98 11.23 -88.46 6.84 -89.8 2.3 -91.08 295.34 0 -2.68 105.98 -7.97 104.7 -13.12 103.2 -18.14 101.61 -23.04 99.84 -27.8 97.91 -32.44 95.91 -36.96 93.72 -41.32 91.38 -45.55 88.96 -49.67 86.39 -53.66 83.68 -57.49 80.83 -61.21 77.9 -64.8 74.8 -68.25 71.62 -71.62 68.25 -74.8 64.8 -77.9 61.21 -80.83 57.49 -83.68 53.66 -86.39 49.67 -88.96 45.55 -91.38 41.32 -93.72 36.96 -95.91 32.44 -97.91 27.8 -99.84 23.04 -101.61 18.14 -103.2 13.12 -104.7 7.97 -105.98 2.68 0 0zm0 0c-81.55,0 -147.67,-66.12 -147.67,-147.67 0,-81.55 66.12,-147.67 147.67,-147.67l0 295.34zm-9.53 -0.03l0 -295.32 0.53 0 -0.24 -0.01 0.3 0 0.29 0 0.3 0 3.13 0.03 0.25 0.01 -2.49 -0.03 0.29 0 0.3 0 0.29 0 0.3 0 0.29 0 0.3 0 0.29 0 0.3 0 0.29 0 3.09 0.03 0.29 0.01 -2.49 -0.03 0.29 0 0.3 0 0.29 0 0.3 0 0.29 0 0.3 0 0.29 0 0.3 0 0.29 0 0.3 0 0.29 0 0.3 0 0.29 0 0 295.34 -0.29 0 -0.3 0 -0.29 0 -0.3 0 -0.29 0 -0.3 0 -0.29 0 -0.3 0 -0.29 0 -0.3 0 -0.29 0 -0.3 0 -0.29 0 -3.09 -0.03 -0.29 -0.01 2.49 0.03 -0.29 0 -0.3 0 -0.29 0 -0.3 0 -0.29 0 -0.3 0 -0.29 0 -0.3 0 -0.29 0 -3.09 -0.03 -0.34 -0.01 2.54 0.03 -0.3 0 -0.29 0 -0.3 0 -0.82 -0.01 0.53 0zm-0.53 0c-81.54,-0.28 -147.41,-66.65 -147.13,-148.19 0.28,-81.54 66.65,-147.41 148.19,-147.13l-1.06 295.32zm-2857.48 -295.3l2858.01 -0.02 0 295.32 -2858.01 0.02 0 -295.32zm0 295.32c-81.54,0 -147.66,-66.12 -147.66,-147.66 0,-81.54 66.12,-147.66 147.66,-147.66l0 295.32z"/>
   </g>
   <g>
    <path class="fil0" d="M1104.19 2444.99c-16.55,79.84 -94.72,131.16 -174.56,114.61 -79.84,-16.55 -131.16,-94.72 -114.61,-174.56l289.18 59.95zm2644.57 -2444.99l0 295.34 0 0 -121.62 2.69 -120.17 7.97 -118.63 13.16 -117.01 18.22 -115.28 23.17 -113.44 27.99 -111.48 32.73 -109.44 37.33 -107.28 41.83 -105 46.22 -102.62 50.5 -100.12 54.67 -97.52 58.72 -94.79 62.66 -91.96 66.49 -89 70.2 -85.94 73.8 -82.75 77.3 -79.46 80.67 -76.05 83.91 -72.51 87.07 -68.87 90.09 -65.12 93 -61.26 95.79 -57.26 98.48 -53.18 101.03 -48.97 103.5 -44.64 105.84 -40.23 108.08 -35.68 110.19 -31.02 112.2 -26.27 114.14 -289.18 -59.95 29.15 -126.65 34.44 -124.58 39.62 -122.34 44.64 -119.98 49.57 -117.49 54.35 -114.88 59.01 -112.13 63.54 -109.26 67.94 -106.25 72.23 -103.15 76.37 -99.88 80.41 -96.54 84.31 -93.04 88.08 -89.42 91.75 -85.7 95.28 -81.84 98.7 -77.85 101.98 -73.73 105.14 -69.5 108.19 -65.14 111.1 -60.66 113.89 -56.06 116.57 -51.31 119.09 -46.45 121.5 -41.45 123.79 -36.33 125.93 -31.08 127.95 -25.71 129.84 -20.22 131.57 -14.58 133.2 -8.84 134.63 -2.98 0 0zm0 0c81.55,0 147.67,66.12 147.67,147.67 0,81.55 -66.12,147.67 -147.67,147.67l0 -295.34zm2996.15 2996.15l-295.34 0 0 0 -3.51 -139.13 -10.44 -137.21 -17.17 -135.18 -23.75 -132.96 -30.14 -130.62 -36.38 -128.1 -42.44 -125.44 -48.34 -122.6 -54.08 -119.6 -59.62 -116.44 -65.04 -113.08 -70.25 -109.58 -75.31 -105.92 -80.2 -102.04 -84.91 -98.03 -89.46 -93.82 -93.82 -89.46 -98.03 -84.91 -102.04 -80.2 -105.92 -75.31 -109.58 -70.25 -113.08 -65.04 -116.44 -59.62 -119.6 -54.08 -122.6 -48.34 -125.44 -42.44 -128.1 -36.38 -130.62 -30.14 -132.96 -23.75 -135.18 -17.17 -137.21 -10.44 -139.13 -3.51 0 -295.34 154.03 3.89 152.1 11.57 149.94 19.06 147.57 26.34 145 33.47 142.24 40.38 139.28 47.12 136.1 53.67 132.74 60.02 129.22 66.17 125.48 72.15 121.56 77.92 117.46 83.52 113.16 88.94 108.69 94.13 104.01 99.19 99.19 104.01 94.13 108.69 88.94 113.16 83.52 117.46 77.92 121.56 72.15 125.48 66.17 129.22 60.02 132.74 53.67 136.1 47.12 139.28 40.38 142.24 33.47 145 26.34 147.57 19.06 149.94 11.57 152.1 3.89 154.03 0 0zm0 0c0,81.55 -66.12,147.67 -147.67,147.67 -81.55,0 -147.67,-66.12 -147.67,-147.67l295.34 0zm-2996.15 2996.15l0 -295.34 0 0 139.13 -3.51 137.21 -10.44 135.18 -17.17 132.96 -23.75 130.62 -30.14 128.1 -36.38 125.44 -42.44 122.6 -48.34 119.6 -54.08 116.44 -59.62 113.08 -65.04 109.58 -70.25 105.92 -75.31 102.04 -80.2 98.03 -84.91 93.82 -89.46 89.46 -93.82 84.91 -98.03 80.2 -102.04 75.31 -105.92 70.25 -109.58 65.04 -113.08 59.62 -116.44 54.08 -119.6 48.34 -122.6 42.44 -125.44 36.38 -128.1 30.14 -130.62 23.75 -132.96 17.17 -135.18 10.44 -137.21 3.51 -139.13 295.34 0 -3.89 154.03 -11.57 152.1 -19.06 149.94 -26.34 147.57 -33.47 145 -40.38 142.24 -47.12 139.28 -53.67 136.1 -60.02 132.74 -66.17 129.22 -72.15 125.48 -77.92 121.56 -83.52 117.46 -88.94 113.16 -94.13 108.69 -99.19 104.01 -104.01 99.19 -108.69 94.13 -113.16 88.94 -117.46 83.52 -121.56 77.92 -125.48 72.15 -129.22 66.17 -132.74 60.02 -136.1 53.67 -139.28 47.12 -142.24 40.38 -145 33.47 -147.57 26.34 -149.94 19.06 -152.1 11.57 -154.03 3.89 0 0zm0 0c-81.55,0 -147.67,-66.12 -147.67,-147.67 0,-81.55 66.12,-147.67 147.67,-147.67l0 295.34zm-9.53 -0.01l0 -295.34 0.29 0 0.3 0 0.29 0 0.3 0 0.29 0 0.3 0 0.29 0 0.3 0 0.29 0 0.3 0 0.29 0 0.3 0 0.29 0 0.3 0 3.08 0.03 0.3 0.01 -2.5 -0.03 0.29 0 0.3 0 0.29 0 0.3 0 0.29 0 0.3 0 0.29 0 0.3 0 0.29 0 0.3 0 0.29 0 0.3 0 0.29 0 0.3 0 0.29 0 0 295.34 -0.29 0 -0.3 0 -0.29 0 -0.3 0 -0.29 0 -0.3 0 -0.29 0 -0.3 0 -0.29 0 -0.3 0 -0.29 0 -0.3 0 -0.29 0 -0.3 0 -0.29 0 -3.08 -0.03 -0.3 -0.01 2.5 0.03 -0.3 0 -0.29 0 -0.3 0 -0.29 0 -0.3 0 -0.29 0 -0.3 0 -0.29 0 -0.3 0 -0.29 0 -0.3 0 -0.29 0 -0.3 0 -0.29 0zm0 0c-81.55,0 -147.67,-66.12 -147.67,-147.67 0,-81.55 66.12,-147.67 147.67,-147.67l0 295.34z"/>
   </g>
   <g>
    <path class="fil0" d="M147.67 3315.3c-81.55,0 -147.67,-66.12 -147.67,-147.67 0,-81.55 66.12,-147.67 147.67,-147.67l0 295.34zm1333.73 0l-1333.73 0 0 -295.34 1333.73 0 0 295.34zm0 -295.34c81.55,0 147.67,66.12 147.67,147.67 0,81.55 -66.12,147.67 -147.67,147.67l0 -295.34z"/>
   </g>
   <g>
    <path class="fil0" d="M1319.45 4210.81c-81.55,0 -147.67,-66.12 -147.67,-147.67 0,-81.55 66.12,-147.67 147.67,-147.67l0 295.34zm1390.89 0l-1390.89 0 0 -295.34 1390.89 0 0 295.34zm0 -295.34c81.55,0 147.67,66.12 147.67,147.67 0,81.55 -66.12,147.67 -147.67,147.67l0 -295.34z"/>
   </g>
   <g>
    <path class="fil0" d="M3591.56 4425.15c0,-81.55 66.12,-147.67 147.67,-147.67 81.55,0 147.67,66.12 147.67,147.67l-295.34 0zm0 485.86l0 -485.86 295.34 0 0 485.86 -147.67 147.67 -147.67 -147.67zm295.34 0c0,81.55 -66.12,147.67 -147.67,147.67 -81.55,0 -147.67,-66.12 -147.67,-147.67l295.34 0zm-138.14 147.67l-9.53 0 0 -295.34 9.53 0 0 295.34zm0 -295.34c81.55,0 147.67,66.12 147.67,147.67 0,81.55 -66.12,147.67 -147.67,147.67l0 -295.34z"/>
   </g>
   <g>
    <path class="fil0" d="M5177.76 3143.82c-81.55,0 -147.67,-66.12 -147.67,-147.67 0,-81.55 66.12,-147.67 147.67,-147.67l0 295.34zm485.86 0l-485.86 0 0 -295.34 485.86 0 147.67 147.67 -147.67 147.67zm0 -295.34c81.55,0 147.67,66.12 147.67,147.67 0,81.55 -66.12,147.67 -147.67,147.67l0 -295.34zm147.67 138.14l0 9.53 -295.34 0 0 -9.53 295.34 0zm-295.34 0c0,-81.55 66.12,-147.67 147.67,-147.67 81.55,0 147.67,66.12 147.67,147.67l-295.34 0z"/>
   </g>
   <g>
    <path class="fil0" d="M3591.56 1081.28c0,-81.55 66.12,-147.67 147.67,-147.67 81.55,0 147.67,66.12 147.67,147.67l-295.34 0zm0 485.86l0 -485.86 295.34 0 0 485.86 -147.67 147.67 -147.67 -147.67zm295.34 0c0,81.55 -66.12,147.67 -147.67,147.67 -81.55,0 -147.67,-66.12 -147.67,-147.67l295.34 0zm-138.14 147.67l-9.53 0 0 -295.34 9.53 0 0 295.34zm0 -295.34c81.55,0 147.67,66.12 147.67,147.67 0,81.55 -66.12,147.67 -147.67,147.67l0 -295.34z"/>
   </g>
   <g>
    <path class="fil0" d="M3225.17 2624.24c-57.67,-57.67 -57.67,-151.17 0,-208.84 57.67,-57.67 151.17,-57.67 208.84,0l-208.84 208.84zm447.75 447.75l-447.75 -447.75 208.84 -208.84 447.75 447.75 0 208.84 -208.84 0zm208.84 -208.84c57.67,57.67 57.67,151.17 0,208.84 -57.67,57.67 -151.17,57.67 -208.84,0l208.84 -208.84zm733.56 -524.73l-733.56 733.56 -208.84 -208.84 733.56 -733.56 208.84 208.84zm-208.84 -208.84c57.67,-57.67 151.17,-57.67 208.84,0 57.67,57.67 57.67,151.17 0,208.84l-208.84 -208.84zm-0.01 0.01l0.01 -0.01 208.84 208.84 -0.01 0.01 -208.84 -208.84zm208.84 208.84c-57.67,57.67 -151.17,57.67 -208.84,0 -57.67,-57.67 -57.67,-151.17 0,-208.84l208.84 208.84z"/>
   </g>
   <g>
    <path class="fil0" d="M3748.76 5696.95c81.55,0 147.67,66.12 147.67,147.67 0,81.55 -66.12,147.67 -147.67,147.67l0 -295.34zm-1505.21 0l1505.21 0 0 295.34 -1505.21 0 0 -295.34zm0 295.34c-81.55,0 -147.67,-66.12 -147.67,-147.67 0,-81.55 66.12,-147.67 147.67,-147.67l0 295.34z"/>
   </g>
  </g>
 </g>
</svg>
