<?xml version="1.0" encoding="UTF-8"?>
<!DOCTYPE svg PUBLIC "-//W3C//DTD SVG 1.1//EN" "http://www.w3.org/Graphics/SVG/1.1/DTD/svg11.dtd">
<!-- Creator: CorelDRAW 2021.5 -->
<svg xmlns="http://www.w3.org/2000/svg" xml:space="preserve" width="20.4047mm" height="18.0377mm" version="1.1" style="shape-rendering:geometricPrecision; text-rendering:geometricPrecision; image-rendering:optimizeQuality; fill-rule:evenodd; clip-rule:evenodd"
viewBox="0 0 2174.64 1922.37"
 xmlns:xlink="http://www.w3.org/1999/xlink"
 xmlns:xodm="http://www.corel.com/coreldraw/odm/2003">
 <defs>
  <style type="text/css">
   <![CDATA[
    .str0 {stroke:black;stroke-width:54.14;stroke-miterlimit:22.9256}
    .str1 {stroke:black;stroke-width:54.14;stroke-linejoin:round;stroke-miterlimit:22.9256}
    .str2 {stroke:black;stroke-width:54.14;stroke-linejoin:bevel;stroke-miterlimit:22.9256}
    .fil0 {fill:none}
   ]]>
  </style>
 </defs>
 <g id="Capa_x0020_1">
  <metadata id="CorelCorpID_0Corel-Layer"/>
  <g id="_2350932067664">
   <polyline class="fil0 str0" points="1878.58,1160.95 1878.58,691.59 140,691.59 140,1732.83 1089.98,1732.83 "/>
   <polyline class="fil0 str0" points="16.09,769.89 1011.82,33.69 2007.54,773.42 "/>
   <line class="fil0 str0" x1="66.57" y1="1733.03" x2="1156.52" y2= "1733.03" />
   <line class="fil0 str0" x1="1443.07" y1="691.59" x2="1443.07" y2= "1401.24" />
   <polyline class="fil0 str1" points="1172.94,1903.23 1473.4,1602.77 1680.96,1810.32 2128.9,1362.4 2136.46,1369.96 "/>
   <polyline class="fil0 str1" points="2147.57,1663.04 2147.57,1350.78 1835.3,1350.78 "/>
   <rect class="fil0 str0" x="397.28" y="939.97" width="358.86" height="320.28" rx="7.46" ry="7.46"/>
   <polygon class="fil0 str2" points="557.07,369.92 1009.29,691.59 1011.82,33.69 "/>
   <polygon class="fil0 str2" points="1466.56,369.92 1014.34,691.59 1011.82,33.69 "/>
   <line class="fil0 str0" x1="1014.34" y1="691.59" x2="1014.34" y2= "1733.03" />
  </g>
 </g>
</svg>
