<svg width="95" height="93" viewBox="0 0 95 93" fill="none" xmlns="http://www.w3.org/2000/svg">
<path d="M93.1481 46.5C93.1481 71.6174 72.5317 92 47.0741 92C21.6165 92 1 71.6174 1 46.5C1 21.3826 21.6165 1 47.0741 1C72.5317 1 93.1481 21.3826 93.1481 46.5Z" stroke="#EB8D07" stroke-width="2"/>
<path d="M49 15H47V18H49V15Z" fill="black"/>
<path d="M49 74H47V77H49V74Z" fill="black"/>
<path d="M79 45H76V47H79V45Z" fill="black"/>
<path d="M20 45H17V47H20V45Z" fill="black"/>
<path d="M69.215 23.3728L67.0938 25.4941L68.5079 26.9083L70.6292 24.787L69.215 23.3728Z" fill="black"/>
<path d="M27.4924 65.0909L25.3711 67.2122L26.7853 68.6264L28.9066 66.5051L27.4924 65.0909Z" fill="black"/>
<path d="M68.504 65.0924L67.0898 66.5066L69.2111 68.6279L70.6253 67.2137L68.504 65.0924Z" fill="black"/>
<path d="M26.7892 23.3729L25.375 24.7871L27.4963 26.9084L28.9105 25.4942L26.7892 23.3729Z" fill="black"/>
<path d="M66.444 34.3909L65.568 33.9559C59.898 31.1439 54.904 27.3149 50.726 22.5799L48.75 20.3389C48.371 19.9069 47.629 19.9069 47.25 20.3389L45.273 22.5799C41.095 27.3149 36.101 31.1429 30.431 33.9559L29.555 34.3909C29.215 34.5599 29 34.9059 29 35.2859V40.6929C29 51.1809 33.734 60.9539 41.988 67.5049L47.378 71.7819C47.561 71.9279 47.78 71.9999 48 71.9999C48.22 71.9999 48.439 71.9279 48.622 71.7829L54.012 67.5059C62.266 60.9539 67 51.1819 67 40.6929V35.2859C67 34.9059 66.785 34.5599 66.444 34.3909ZM65 40.6929C65 50.5669 60.542 59.7689 52.768 65.9389L49 68.9299V62.9999H47V68.9299L43.232 65.9399C35.458 59.7699 31 50.5669 31 40.6929V35.9059L31.32 35.7469C37.223 32.8189 42.423 28.8339 46.773 23.9019L47 23.6449V29.9999H49V23.6449L49.227 23.9019C53.578 28.8339 58.777 32.8189 64.68 35.7469L65 35.9059V40.6929Z" fill="black"/>
<path d="M58 40.782V36.003C58 35.45 57.553 35.003 57 35.003H54C53.447 35.003 53 35.45 53 36.003V36.599L48.961 33.232C48.781 33.082 48.555 33 48.32 33H47.68C47.445 33 47.216 33.083 47.035 33.235L36.355 42.235C36.13 42.426 36 42.705 36 43V48C36 48.389 36.226 48.742 36.578 48.906C36.93 49.071 37.345 49.015 37.644 48.764L39 47.623V57.997C39 58.55 39.447 58.997 40 58.997H56C56.553 58.997 57 58.55 57 57.997V47.623L58.355 48.765C58.54 48.92 58.769 49 59 49C59.144 49 59.287 48.97 59.422 48.906C59.774 48.742 60 48.389 60 48V43C60 42.713 59.877 42.44 59.662 42.251L58 40.782ZM50 56.997H46V53.73C46 52.627 46.897 51.73 48 51.73C49.103 51.73 50 52.627 50 53.73V56.997ZM55 56.997H52V53.73C52 51.524 50.206 49.73 48 49.73C45.794 49.73 44 51.524 44 53.73V56.997H41V45.938L48 40.041L55 45.938V56.997ZM58 45.85L48.645 37.969C48.458 37.812 48.23 37.734 48 37.734C47.77 37.734 47.542 37.812 47.355 37.969L38 45.85V43.465L48.002 35.036L53.359 39.502C53.658 39.751 54.075 39.803 54.423 39.639C54.775 39.475 55 39.121 55 38.733V37.003H56V41.233C56 41.52 56.123 41.793 56.338 41.982L58 43.451V45.85Z" fill="black"/>
</svg>
