<svg width="170" height="170" viewBox="0 0 170 170" fill="none" xmlns="http://www.w3.org/2000/svg">
<path d="M96.0557 100.076C99.1131 98.933 102.542 98.8196 105.672 99.7404C108.628 100.601 111.302 102.387 113.243 104.775C115.511 107.537 116.762 111.115 116.686 114.69C116.656 119.276 114.389 123.761 110.761 126.555C108.657 128.196 106.117 129.275 103.471 129.636C100.285 130.082 96.9697 129.489 94.1322 127.969C93.43 126.522 92.3193 125.279 90.9382 124.451C91.348 123.726 91.7155 122.977 92.0201 122.201C92.3999 122.51 92.6964 122.902 93.057 123.231C94.8945 124.984 97.3016 126.129 99.8249 126.444C102.162 126.744 104.59 126.35 106.699 125.3C109.178 124.086 111.209 121.996 112.352 119.489C113.428 117.167 113.724 114.499 113.204 111.996C112.668 109.372 111.22 106.948 109.175 105.224C107.356 103.678 105.07 102.689 102.697 102.433C99.6582 102.083 96.5011 102.951 94.0762 104.814C93.1062 105.523 92.318 106.433 91.5475 107.344C91.1035 106.254 90.5707 105.205 90.0146 104.171C91.6745 102.365 93.7483 100.925 96.0557 100.076Z" fill="black" stroke="black" stroke-width="0.0331057" stroke-miterlimit="22.9256"/>
<path d="M100.552 106.249C100.728 105.55 101.736 105.341 102.193 105.888C102.602 106.374 102.366 107.064 102.443 107.646C103.792 107.817 105.238 108.276 106.101 109.395C106.526 109.902 106.309 110.751 105.691 110.992C105.26 111.219 104.753 111.053 104.417 110.735C103.327 109.734 101.698 109.374 100.281 109.781C99.6462 109.956 99.0847 110.527 99.1311 111.221C99.1612 111.914 99.8074 112.329 100.378 112.578C102.034 113.284 103.929 113.519 105.359 114.691C107.066 116.042 107.032 119.018 105.286 120.323C104.465 120.961 103.424 121.18 102.419 121.329C102.387 121.89 102.592 122.559 102.184 123.028C101.721 123.553 100.736 123.353 100.553 122.668C100.475 122.219 100.525 121.76 100.515 121.308C98.9085 121.094 97.2677 120.373 96.3128 119.014C95.9152 118.506 96.1393 117.676 96.7417 117.439C97.183 117.212 97.7226 117.369 98.0519 117.719C98.9112 118.557 100.023 119.228 101.255 119.254C102.089 119.269 103.01 119.236 103.697 118.702C104.459 118.077 104.385 116.731 103.526 116.22C101.795 115.127 99.5587 115.094 97.944 113.772C96.3947 112.585 96.3415 109.982 97.7923 108.698C98.5314 108.018 99.5369 107.734 100.512 107.613C100.523 107.158 100.478 106.698 100.548 106.247L100.552 106.249Z" fill="black" stroke="black" stroke-width="0.0331057" stroke-miterlimit="22.9256"/>
<path d="M169 85C169 131.392 131.392 169 85 169C38.6081 169 1 131.392 1 85C1 38.6081 38.6081 1 85 1C131.392 1 169 38.6081 169 85Z" stroke="#EB8D07" stroke-width="2"/>
<path d="M34.0153 33.9128C34.8281 33.3227 35.8309 32.9893 36.8391 33.0003C53.5401 33.0016 70.2412 33.0003 86.9423 33.0016C89.2688 32.988 91.3918 34.8978 91.6514 37.2052C91.9834 39.4006 90.5831 41.6835 88.4874 42.402C87.4655 42.7955 86.3576 42.652 85.2906 42.6821C87.277 44.648 88.859 47.0715 89.5748 49.7915C90.2962 52.4104 90.2169 55.2096 89.5339 57.8285C88.68 61.1428 86.986 64.1756 84.9969 66.9393C80.5802 73.1184 75.8028 79.046 70.6265 84.6049C74.8738 89.1801 78.8561 93.9998 82.5966 98.9999C83.9805 100.885 85.4081 102.747 86.6308 104.745C88.4614 107.761 89.8522 111.141 90.0571 114.697C90.2402 117.65 89.5134 120.653 87.9683 123.181C87.2442 124.414 86.2947 125.496 85.3207 126.536C86.486 126.575 87.7183 126.421 88.803 126.955C90.7934 127.793 92.0271 130.076 91.6254 132.201C91.2853 134.435 89.2005 136.241 86.9355 136.226C70.1825 136.226 53.4322 136.229 36.6792 136.225C34.3295 136.204 32.2119 134.214 32.0316 131.873C31.7666 129.7 33.1956 127.484 35.2707 126.808C36.2762 126.431 37.3609 126.578 38.4088 126.551C36.4579 124.618 34.8923 122.245 34.1642 119.578C33.3281 116.681 33.4934 113.56 34.3595 110.69C35.2571 107.674 36.8254 104.903 38.6506 102.358C43.0782 96.1501 47.8789 90.2061 53.0688 84.6199C48.8584 80.0802 44.9034 75.3055 41.193 70.3519C39.0454 67.442 36.7981 64.5527 35.35 61.2152C33.8964 57.9583 33.171 54.2724 33.9019 50.7382C34.5002 47.659 36.1751 44.8584 38.4156 42.6903C37.4047 42.6698 36.3623 42.7859 35.3841 42.4622C33.7803 41.9676 32.4975 40.5782 32.13 38.9402C31.6764 37.085 32.4551 35.0126 34.0166 33.9156L34.0153 33.9128ZM36.3978 36.2981C35.5303 36.5331 34.9907 37.5686 35.3445 38.4074C35.585 39.0741 36.2885 39.5017 36.9893 39.4553C53.5825 39.4553 70.1784 39.4607 86.7715 39.4525C87.5147 39.4894 88.2347 38.9662 88.4082 38.2394C88.6964 37.2367 87.8125 36.156 86.7729 36.2312C70.1838 36.2257 53.5962 36.2326 37.0071 36.2285C36.8008 36.2257 36.5973 36.2489 36.3992 36.2995L36.3978 36.2981ZM43.5154 42.7887C40.9402 44.4267 38.6683 46.7313 37.5768 49.6262C36.5453 52.2765 36.6902 55.2615 37.5618 57.9364C38.6055 61.2766 40.6397 64.1715 42.7039 66.9516C46.6739 72.3697 50.9445 77.5692 55.5115 82.4956C56.573 83.6472 56.5702 85.5858 55.5088 86.7374C51.4267 91.1378 47.5851 95.7622 43.9772 100.56C42.5892 102.437 41.1697 104.296 39.9265 106.275C38.1724 109.134 36.8076 112.388 36.8555 115.795C36.8705 118.543 37.9921 121.216 39.794 123.269C40.9252 124.552 42.2449 125.7 43.7354 126.541C55.8257 126.562 67.9174 126.543 80.0078 126.551C82.501 124.996 84.7223 122.845 85.9095 120.118C86.8808 117.936 87.0625 115.458 86.6021 113.127C85.9887 109.989 84.4395 107.123 82.6157 104.53C78.2058 98.3127 73.4079 92.3687 68.2262 86.7784C67.3792 85.874 67.1442 84.4614 67.6524 83.3316C67.927 82.6486 68.5062 82.1677 68.9789 81.6253C73.8738 76.2782 78.4176 70.6101 82.6144 64.6975C84.4423 62.1004 85.9942 59.2288 86.6062 56.0867C87.0721 53.7164 86.8699 51.1918 85.8562 48.9841C84.654 46.3147 82.4641 44.2053 80.0064 42.6739C68.1346 42.6753 56.2656 42.6766 44.3938 42.6725C44.1015 42.693 43.7736 42.6029 43.5168 42.7846L43.5154 42.7887ZM36.3896 129.846C35.7229 130.039 35.227 130.697 35.238 131.392C35.2229 132.249 35.9948 133.015 36.8527 132.998C53.2792 133.007 69.7071 132.996 86.1349 133.002C86.7483 133.014 87.4464 133.041 87.9232 132.582C88.6363 131.973 88.6227 130.742 87.8849 130.159C87.3685 129.692 86.6308 129.775 85.9901 129.774C69.9202 129.775 53.8503 129.775 37.7803 129.774C37.3172 129.783 36.8432 129.731 36.3896 129.846Z" fill="black"/>
<path d="M34.0153 33.9128C34.8281 33.3227 35.8309 32.9893 36.8391 33.0003C53.5401 33.0016 70.2412 33.0003 86.9423 33.0016C89.2688 32.988 91.3918 34.8978 91.6514 37.2052C91.9834 39.4006 90.5831 41.6835 88.4874 42.402C87.4655 42.7955 86.3576 42.652 85.2906 42.6821C87.277 44.648 88.859 47.0715 89.5748 49.7915C90.2962 52.4104 90.2169 55.2096 89.5339 57.8285C88.68 61.1428 86.986 64.1756 84.9969 66.9393C80.5802 73.1184 75.8028 79.046 70.6265 84.6049C74.8738 89.1801 78.8561 93.9998 82.5966 98.9999C83.9805 100.885 85.4081 102.747 86.6308 104.745C88.4614 107.761 89.8522 111.141 90.0571 114.697C90.2402 117.65 89.5134 120.653 87.9683 123.181C87.2442 124.414 86.2947 125.496 85.3207 126.536C86.486 126.575 87.7183 126.421 88.803 126.955C90.7934 127.793 92.0271 130.076 91.6254 132.201C91.2853 134.435 89.2005 136.241 86.9355 136.226C70.1825 136.226 53.4322 136.229 36.6792 136.225C34.3295 136.204 32.2119 134.214 32.0316 131.873C31.7666 129.7 33.1956 127.484 35.2707 126.808C36.2762 126.431 37.3609 126.578 38.4088 126.551C36.4579 124.618 34.8923 122.245 34.1642 119.578C33.3281 116.681 33.4934 113.56 34.3595 110.69C35.2571 107.674 36.8254 104.903 38.6506 102.358C43.0782 96.1501 47.8789 90.2061 53.0688 84.6199C48.8584 80.0802 44.9034 75.3056 41.193 70.3519C39.0454 67.442 36.7981 64.5527 35.35 61.2152C33.8964 57.9583 33.171 54.2724 33.9019 50.7382C34.5002 47.659 36.1751 44.8584 38.4156 42.6903C37.4047 42.6698 36.3623 42.7859 35.3841 42.4622C33.7803 41.9676 32.4975 40.5782 32.13 38.9402C31.6764 37.085 32.4551 35.0126 34.0166 33.9156L34.0153 33.9128ZM36.3992 36.3009C35.5317 36.5358 34.992 37.5714 35.3459 38.4102C35.5863 39.0769 36.2899 39.5045 36.9907 39.458C53.5839 39.458 70.1797 39.4635 86.7729 39.4553C87.5161 39.4922 88.236 38.9689 88.4095 38.2421C88.6978 37.2394 87.8139 36.1588 86.7743 36.2339C70.1852 36.2285 53.5975 36.2353 37.0085 36.2312C36.8022 36.2285 36.5986 36.2517 36.4005 36.3022L36.3992 36.3009ZM43.5181 42.7928C40.943 44.4308 38.6711 46.7354 37.5795 49.6303C36.5481 52.2806 36.6929 55.2656 37.5645 57.9405C38.6082 61.2807 40.6424 64.1756 42.7066 66.9557C46.6767 72.3738 50.9472 77.5733 55.5142 82.4997C56.5757 83.6513 56.573 85.5899 55.5115 86.7415C51.4295 91.1419 47.5879 95.7663 43.9799 100.564C42.5919 102.441 41.1725 104.301 39.9293 106.279C38.1752 109.138 36.8104 112.392 36.8582 115.799C36.8732 118.547 37.9948 121.22 39.7968 123.273C40.9279 124.556 42.2476 125.704 43.7381 126.545C55.8284 126.566 67.9201 126.547 80.0105 126.555C82.5037 125 84.725 122.849 85.9122 120.122C86.8836 117.94 87.0652 115.462 86.6049 113.131C85.9915 109.993 84.4423 107.127 82.6185 104.534C78.2086 98.3168 73.4107 92.3728 68.2289 86.7825C67.3819 85.8781 67.1469 84.4655 67.6551 83.3357C67.9297 82.6527 68.509 82.1718 68.9816 81.6294C73.8765 76.2823 78.4203 70.6142 82.6171 64.7016C84.445 62.1045 85.9969 59.2329 86.609 56.0908C87.0748 53.7205 86.8726 51.1959 85.8589 48.9882C84.6567 46.3188 82.4668 44.2094 80.0091 42.678C68.1374 42.6794 56.2683 42.6807 44.3966 42.6766C44.1042 42.6971 43.7763 42.607 43.5195 42.7887L43.5181 42.7928ZM36.3937 129.846C35.727 130.039 35.2311 130.697 35.2421 131.392C35.227 132.249 35.9989 133.015 36.8568 132.998C53.2833 133.007 69.7112 132.996 86.139 133.002C86.7524 133.014 87.4505 133.041 87.9273 132.582C88.6404 131.973 88.6267 130.742 87.889 130.159C87.3726 129.692 86.6349 129.775 85.9942 129.774C69.9243 129.775 53.8544 129.775 37.7844 129.774C37.3213 129.783 36.8473 129.731 36.3937 129.846V129.846Z" stroke="black" stroke-width="0.0331057" stroke-miterlimit="22.9256"/>
<path d="M105.474 52.6711C106.649 51.458 108.32 50.7408 110.011 50.7421C111.717 50.7094 113.413 51.4034 114.613 52.6124C121.757 59.7573 128.899 66.8968 136.041 74.0417C137.003 74.9734 137.671 76.207 137.899 77.5308C138.263 79.5185 137.632 81.6606 136.218 83.1074C134.386 84.9476 132.548 86.7782 130.713 88.6143C130.409 88.8807 130.174 89.2455 129.819 89.4408C128.312 89.4681 126.803 89.4463 125.297 89.4504C128.146 86.6129 130.988 83.7659 133.83 80.9202C134.708 80.0541 135.013 78.6633 134.549 77.5158C134.324 76.8669 133.817 76.386 133.338 75.9201C126.328 68.9145 119.322 61.9062 112.316 54.8993C111.421 53.984 109.951 53.7176 108.79 54.2463C108.116 54.5236 107.639 55.0947 107.134 55.5933C95.8003 66.2847 65.1222 94.8221 92.7756 66.4555C97.0872 62.0565 101.209 56.5004 105.475 52.6739L105.474 52.6711Z" fill="black" stroke="black" stroke-width="0.0331057" stroke-miterlimit="22.9256"/>
<path d="M60.4264 57.0118C64.1792 55.8861 68.0495 55.1169 71.9621 54.8369C73.9062 54.7303 75.8857 54.7085 77.7915 55.1593C78.8789 55.4271 80.0032 55.897 80.6795 56.8342C81.2054 57.5378 81.3885 58.5186 81.0087 59.3342C80.3844 60.7209 79.3816 61.8875 78.4636 63.0843C73.5236 69.1609 68.4238 75.1063 63.4661 81.1706C63.4593 88.8524 63.4456 96.5343 63.4743 104.213C65.4743 104.772 67.2175 105.993 68.7121 107.406L68.8159 107.436C72.066 106.917 75.413 107.14 78.6057 107.898C81.088 108.599 82.5251 111.47 81.8626 113.912C81.5251 115.444 80.3202 116.53 79.2737 117.608C75.4048 121.439 70.3228 124.114 64.8869 124.756C61.3827 125.184 57.7775 124.88 54.4168 123.778C50.2419 122.427 46.4973 119.887 43.5273 116.675C42.8647 115.983 42.2308 115.22 41.9439 114.287C41.4152 112.711 41.698 110.884 42.709 109.559C43.3784 108.659 44.3852 108.015 45.4836 107.791C48.5834 107.136 51.8061 106.914 54.94 107.452C56.4332 106 58.2133 104.794 60.2242 104.2C60.2201 96.5233 60.2311 88.8456 60.2201 81.1706C56.0889 76.4943 51.9728 71.8044 47.8429 67.1253C47.112 66.3589 47.2322 65.1335 47.6762 64.2496C48.4044 62.8384 49.72 61.8589 51.0233 61.0146C53.9332 59.214 57.1696 58.0159 60.4264 57.0104V57.0118ZM64.7858 59.1976C61.1068 60.0706 57.4605 61.2072 54.1012 62.9668C52.8676 63.6376 51.6203 64.3603 50.6818 65.4245C54.3676 69.6623 58.1081 73.8508 61.8035 78.0818C65.5139 73.6049 69.2408 69.1418 72.969 64.6799C74.6097 62.6635 76.3352 60.7045 77.7928 58.5487C76.8447 58.1525 75.8024 58.0856 74.7887 58.0296C71.4184 57.9162 68.0618 58.4544 64.7858 59.2003V59.1976ZM61.0781 107.319C59.0357 107.951 57.3676 109.424 56.0616 111.075C52.8471 110.051 49.3757 110.286 46.1175 110.968C44.9344 111.253 44.5505 112.91 45.3046 113.797C47.9112 116.847 51.2897 119.279 55.0985 120.588C58.7037 121.832 62.6532 122.031 66.3773 121.215C71.055 120.19 75.2614 117.449 78.3625 113.834C79.133 112.966 78.7915 111.319 77.6316 110.989C74.3529 110.278 70.8624 110.062 67.6178 111.069C66.626 109.789 65.4088 108.659 63.9784 107.884C63.0959 107.447 62.0726 106.959 61.0781 107.319Z" fill="black"/>
<path d="M60.4264 57.0118C64.1792 55.8861 68.0495 55.1169 71.9621 54.8369C73.9062 54.7303 75.8857 54.7085 77.7915 55.1593C78.8789 55.4271 80.0032 55.897 80.6795 56.8342C81.2054 57.5378 81.3885 58.5186 81.0087 59.3342C80.3844 60.7209 79.3816 61.8875 78.4636 63.0843C73.5236 69.1609 68.4238 75.1063 63.4661 81.1706C63.4593 88.8524 63.4456 96.5343 63.4743 104.213C65.4743 104.772 67.2175 105.993 68.7121 107.406L68.8159 107.436C72.066 106.917 75.413 107.14 78.6057 107.898C81.088 108.599 82.5251 111.47 81.8626 113.912C81.5251 115.444 80.3202 116.53 79.2737 117.608C75.4048 121.439 70.3228 124.114 64.8869 124.756C61.3827 125.184 57.7775 124.88 54.4168 123.778C50.2419 122.427 46.4973 119.887 43.5273 116.675C42.8647 115.983 42.2308 115.22 41.9439 114.287C41.4152 112.711 41.698 110.884 42.709 109.559C43.3784 108.659 44.3852 108.015 45.4836 107.791C48.5834 107.136 51.8061 106.914 54.94 107.452C56.4332 106 58.2133 104.794 60.2242 104.2C60.2201 96.5233 60.2311 88.8456 60.2201 81.1706C56.0889 76.4943 51.9728 71.8044 47.8429 67.1253C47.112 66.3589 47.2322 65.1335 47.6762 64.2496C48.4044 62.8384 49.72 61.8589 51.0233 61.0146C53.9332 59.214 57.1696 58.0159 60.4264 57.0104V57.0118ZM64.7858 59.1962C61.1068 60.0692 57.4605 61.2058 54.1012 62.9654C52.8676 63.6362 51.6203 64.3589 50.6818 65.4231C54.3676 69.6609 58.1081 73.8495 61.8035 78.0804C65.5139 73.6036 69.2408 69.1404 72.969 64.6786C74.6097 62.6621 76.3352 60.7031 77.7928 58.5473C76.8447 58.1512 75.8024 58.0842 74.7887 58.0282C71.4184 57.9148 68.0618 58.4531 64.7858 59.199V59.1962ZM61.0781 107.32C59.0357 107.952 57.3676 109.425 56.0616 111.077C52.8471 110.052 49.3757 110.287 46.1175 110.969C44.9344 111.254 44.5505 112.912 45.3046 113.798C47.9112 116.849 51.2897 119.281 55.0985 120.589C58.7037 121.834 62.6532 122.032 66.3773 121.216C71.055 120.192 75.2614 117.45 78.3625 113.835C79.133 112.968 78.7915 111.32 77.6316 110.991C74.3529 110.279 70.8624 110.063 67.6178 111.07C66.626 109.79 65.4088 108.66 63.9784 107.886C63.0959 107.448 62.0726 106.961 61.0781 107.32V107.32Z" stroke="black" stroke-width="0.0331057" stroke-miterlimit="22.9256"/>
<path d="M94.1845 73.8397C96.9864 72.3479 100.261 71.7932 103.403 72.2208C106.491 72.6211 109.432 74.0159 111.713 76.1321C115.365 79.4381 117.192 84.5871 116.495 89.4574C115.41 89.4465 114.323 89.4602 113.238 89.4479C113.618 87.2142 113.369 84.8754 112.498 82.7825C111.357 79.9914 109.118 77.6745 106.379 76.4203C103.98 75.3083 101.212 75.0392 98.6367 75.6198C96.1435 76.1826 93.8457 77.5665 92.1803 79.5051C89.8224 82.1868 88.8142 85.9437 89.4098 89.4547C88.3251 89.4465 87.239 89.4561 86.1556 89.4492C85.7841 86.5817 86.2007 83.6076 87.4166 80.9778C88.8046 77.9395 91.2281 75.393 94.1831 73.8397H94.1845Z" fill="black" stroke="black" stroke-width="0.0331057" stroke-miterlimit="22.9256"/>
<path d="M97.2516 81.8138C98.3937 81.0133 99.7448 80.2578 101.19 80.4928C101.954 80.6198 102.274 81.6267 101.778 82.2004C101.347 82.7606 100.563 82.5529 99.9675 82.7551C98.6847 83.1335 97.4552 84.0816 97.0699 85.3999C96.8063 86.3207 97.7503 87.2729 98.6765 86.9655C100.597 86.4573 102.174 85.0051 104.186 84.7674C106.368 84.415 108.533 86.5311 108.245 88.7169C108.212 88.9642 108.155 89.2101 108.099 89.4546C107.332 89.4546 106.565 89.4478 105.8 89.4574C106.397 88.4355 105.54 86.9751 104.343 87.0981C102.992 87.2729 101.865 88.1227 100.642 88.6595C99.5727 89.1555 98.3486 89.5913 97.1697 89.2361C95.7653 88.7866 94.6532 87.374 94.7434 85.8699C94.783 84.8699 95.2803 83.9559 95.8896 83.1882C95.5071 82.6936 94.7598 82.3261 94.8527 81.6048C94.9183 80.9545 95.7407 80.5337 96.2953 80.9012C96.6533 81.1608 96.9347 81.5092 97.2516 81.8165V81.8138Z" fill="black" stroke="black" stroke-width="0.0331057" stroke-miterlimit="22.9256"/>
<path d="M81.7803 92.6776C96.9335 92.6803 112.089 92.6789 127.245 92.6789C128.433 92.6885 129.657 92.5833 130.799 92.9945C133.325 93.7937 135.205 96.2814 135.233 98.9386C135.236 108.706 135.233 118.474 135.235 128.242C135.221 129.406 135.33 130.603 134.94 131.725C134.149 134.328 131.564 136.262 128.834 136.226C116.982 136.219 105.128 136.237 93.275 136.218C94.0004 135.272 94.4895 134.158 94.7504 132.999C106.107 132.999 117.464 133.006 128.821 132.996C130.508 133.016 132.023 131.511 132 129.82C132 119.581 131.998 109.339 132 99.0984C132.03 97.4058 130.509 95.8825 128.815 95.9153C113.973 95.918 99.1316 95.9167 84.2899 95.9057C83.462 94.8238 82.6273 93.7486 81.7803 92.6789V92.6776Z" fill="black" stroke="black" stroke-width="0.0331057" stroke-miterlimit="22.9256"/>
<path d="M104.56 55.8396L77.0186 83.9766" stroke="black" stroke-width="1.0158" stroke-miterlimit="22.9256"/>
</svg>
