<svg width="95" height="93" viewBox="0 0 95 93" fill="none" xmlns="http://www.w3.org/2000/svg">
<path d="M29.9197 18.1297C30.4939 17.7413 31.434 18.2817 31.3063 19.0034C31.2004 19.8842 31.0635 20.7614 30.9542 21.6422C31.6676 21.827 32.358 22.0995 33.0058 22.4551C33.5052 21.7767 33.993 21.0913 34.4947 20.4152C34.8307 19.9169 35.6431 19.9029 35.9883 20.3976C36.2184 20.7322 36.154 21.2012 35.9135 21.5123C35.3957 22.2247 34.8664 22.9276 34.3463 23.6376C34.8641 24.1839 35.3094 24.7968 35.6845 25.4518C36.5153 25.1208 37.3322 24.7547 38.1676 24.4354C38.6543 24.2494 39.2124 24.5839 39.3275 25.0892C39.4564 25.4962 39.1813 25.9325 38.8085 26.0834C38.0123 26.432 37.2022 26.7478 36.4014 27.0858C36.5728 27.6438 36.6591 28.2239 36.6718 28.8088C39.6508 26.5045 42.6322 24.2014 45.6124 21.8983C46.61 21.1041 48.1358 21.103 49.1345 21.8937C52.2977 24.35 55.4597 26.8051 58.6205 29.2626C58.6263 28.3783 58.624 27.4952 58.6205 26.6109C58.6251 26.315 58.6205 25.9793 58.8323 25.7466C59.0325 25.4951 59.3673 25.4448 59.6665 25.4518C61.6675 25.4565 63.6685 25.446 65.6695 25.4565C66.1631 25.4202 66.6026 25.86 66.5647 26.3641C66.5808 29.3936 66.552 32.423 66.5785 35.4525C69.3194 37.5871 72.043 39.7464 74.7769 41.8927C75.6457 42.5337 76.1232 43.6718 75.9725 44.7526C75.8194 46.0275 74.7608 47.1352 73.5008 47.2896C72.7345 47.4019 71.9336 47.1785 71.3203 46.7012C70.6886 46.2123 70.0569 45.7234 69.4252 45.2345C69.4252 54.8831 69.4218 64.5317 69.4264 74.1791C71.0856 74.1885 72.746 74.1674 74.4053 74.1885C74.9461 74.1745 75.3269 74.7523 75.2119 75.2658C75.1624 75.7208 74.7205 76.0307 74.2856 75.9956C56.3756 76.0015 38.4645 75.9945 20.5545 75.9992C20.2105 76.0073 19.8066 75.9606 19.5995 75.6424C19.2244 75.1242 19.5178 74.2131 20.2036 74.1944C21.9111 74.1593 23.621 74.1932 25.3297 74.1791C25.3286 64.5305 25.3297 54.8819 25.3286 45.2345C24.6175 45.7713 23.9328 46.3456 23.2033 46.8591C22.0009 47.6721 20.2197 47.3703 19.3716 46.1725C18.3798 44.9584 18.626 42.9793 19.8377 42.012C22.1091 40.2388 24.3862 38.4726 26.6668 36.7122C26.141 36.5122 25.6347 36.2654 25.1479 35.9824C24.5945 36.6947 24.0514 37.4164 23.4944 38.1252C23.1009 38.6667 22.1493 38.4387 21.971 37.8141C21.872 37.4982 21.9721 37.1567 22.1689 36.9041C22.6855 36.2011 23.2079 35.504 23.7211 34.7986C23.2551 34.2407 22.7085 33.7401 22.3737 33.0804C21.5314 33.4231 20.6937 33.7799 19.8515 34.1237C19.1737 34.3811 18.4707 33.5132 18.7917 32.8792C18.8987 32.6394 19.1254 32.4921 19.3578 32.4008C20.1265 32.0803 20.8986 31.7692 21.6649 31.4429C21.5027 30.7387 21.4244 30.0194 21.4002 29.2977C21.4313 29.1246 21.215 29.1667 21.1172 29.1304C20.3888 29.0333 19.6628 28.9292 18.9355 28.8275C18.6456 28.7936 18.351 28.6766 18.1681 28.4356C17.862 28.0602 18.007 27.4707 18.3384 27.1642C18.5685 26.9443 18.901 26.9782 19.1875 27.0192C20.0436 27.1373 20.8997 27.2437 21.7558 27.3595C21.9399 26.6332 22.2046 25.9302 22.559 25.2728C21.8375 24.7102 21.0999 24.1698 20.3831 23.6025C20.0206 23.3265 19.8848 22.751 20.2139 22.3919C20.4464 21.9709 21.0217 21.8235 21.4025 22.1311C22.1321 22.6727 22.8248 23.2633 23.5439 23.8189C24.0767 23.2926 24.6762 22.8388 25.324 22.4691C24.9903 21.6153 24.606 20.7813 24.2677 19.9286C23.9904 19.2982 24.6267 18.5542 25.278 18.6794C25.6278 18.7133 25.9016 18.9917 26.0063 19.3227C26.3193 20.0947 26.6196 20.8714 26.9384 21.6398C27.669 21.4656 28.417 21.3802 29.1672 21.3685C29.2799 20.5813 29.3881 19.7929 29.4974 19.0057C29.5377 18.6806 29.6343 18.3215 29.9197 18.1297ZM46.9529 23.1744C46.6572 23.3113 46.419 23.5417 46.1612 23.7371C37.766 30.2942 29.3685 36.8491 20.9757 43.4086C20.3693 43.8683 20.4268 44.9912 21.1229 45.3315C21.5809 45.569 22.1528 45.4473 22.5348 45.1175C23.6302 44.2391 24.7452 43.3864 25.8291 42.4927C32.8573 37.007 39.8832 31.5177 46.9138 26.0343C47.2221 25.7805 47.6697 25.8822 47.9551 26.122C51.544 28.9058 55.1295 31.692 58.7184 34.477C63.2105 37.9778 67.7383 41.433 72.1822 44.9994C72.425 45.1923 72.6873 45.4181 73.0164 45.4029C73.7425 45.4368 74.4064 44.6952 74.2327 43.9619C74.1521 43.5536 73.7885 43.3185 73.487 43.0823C68.9707 39.5721 64.4659 36.0455 59.9415 32.5459C56.0741 29.4942 52.2033 26.4472 48.3348 23.3979C47.9597 23.0715 47.4097 22.9779 46.9529 23.1744ZM26.4367 23.8143C24.6129 24.7243 23.3667 26.6647 23.2045 28.7128C23.0629 30.3247 23.6199 31.9751 24.6773 33.181C25.6393 34.3226 27.0454 35.0501 28.5182 35.1776C30.6124 33.5518 32.6859 31.899 34.7824 30.2767C35.3278 27.6765 33.8699 24.8564 31.4927 23.778C29.9117 23.0458 27.9993 23.0095 26.4367 23.8143ZM60.4087 30.5422C61.8539 31.7049 63.2934 32.8769 64.7812 33.9846C64.7846 31.7154 64.7835 29.4451 64.7812 27.1759C63.3244 27.1747 61.8677 27.1759 60.4121 27.1759C60.4041 28.2976 60.4121 29.4193 60.4087 30.5422ZM27.111 43.8776C27.119 53.9789 27.1121 64.0802 27.1144 74.1815C40.6519 74.1791 54.1905 74.1803 67.728 74.1815C67.7314 64.0814 67.7234 53.9801 67.7326 43.88C60.9828 38.6083 54.2216 33.3506 47.4661 28.0859C40.6807 33.3483 33.8964 38.6141 27.111 43.8776Z" fill="#010101" stroke="#010101" stroke-width="0.09375"/>
<path d="M46.7023 35.0547C48.2741 34.7027 49.969 35.5916 50.6628 37.0525C51.1093 37.9707 51.1542 39.0807 50.7963 40.0364C50.313 41.33 49.0749 42.3055 47.7091 42.4049C46.349 42.543 44.9372 41.8505 44.2433 40.6458C43.5794 39.5334 43.5403 38.0608 44.157 36.9192C44.6702 35.946 45.6598 35.2957 46.7023 35.0547ZM46.8357 36.9601C46.1028 37.166 45.524 37.8666 45.5102 38.6503C45.4009 39.7872 46.4641 40.8528 47.5871 40.6867C48.6653 40.6282 49.4569 39.4749 49.2187 38.421C49.0703 37.3239 47.8541 36.6256 46.8357 36.9601Z" fill="#010101" stroke="#010101" stroke-width="0.09375"/>
<path d="M52.8226 46.5632C53.3876 46.3363 54.1447 46.7621 54.0641 47.4288C54.0906 47.9236 53.666 48.2183 53.3059 48.4523C51.6409 49.6512 50.2681 51.4993 50.1508 53.6316C50.0622 55.737 51.1035 57.7044 52.383 59.2869C53.498 60.3209 53.8915 61.9631 53.6741 63.4451C53.3438 65.885 51.9573 68.0092 50.4476 69.8701C50.1508 70.3006 49.4765 70.3626 49.1232 69.9731C48.7941 69.676 48.7435 69.1157 49.0392 68.7788C50.1277 67.4138 51.1599 65.947 51.6869 64.2557C51.978 63.2954 52.0862 62.2146 51.6788 61.2719C51.4901 60.797 51.0897 60.4671 50.7974 60.0636C49.5421 58.412 48.5652 56.4505 48.4386 54.3369C48.3304 52.8175 48.7539 51.2899 49.5248 49.9927C50.3452 48.6102 51.5223 47.4721 52.8226 46.5632Z" fill="#010101" stroke="#010101" stroke-width="0.09375"/>
<path d="M37.1696 46.6579C37.6644 46.3713 38.3686 46.7456 38.4307 47.3164C38.4963 47.6966 38.3398 48.1188 37.9981 48.3106C36.8796 49.0124 35.9327 49.9997 35.2848 51.1623C34.6152 52.3624 34.3482 53.8058 34.6359 55.1626C34.9546 56.7264 35.7635 58.1546 36.7588 59.3734C37.7898 60.3314 38.2179 61.8215 38.0855 63.2099C37.9256 65.1364 37.0235 66.9061 35.9545 68.4699C35.5725 69.0127 35.1813 69.5507 34.7429 70.049C34.4103 70.4408 33.7499 70.4022 33.4403 69.9999C33.1538 69.6817 33.1492 69.1495 33.4415 68.8349C34.5254 67.4827 35.5506 66.0265 36.0753 64.348C36.4044 63.2883 36.4781 62.0531 35.8901 61.0706C35.7532 60.7922 35.4781 60.6378 35.2837 60.4097C33.9351 58.7032 32.865 56.6598 32.7292 54.4397C32.5819 52.4712 33.3368 50.5225 34.5427 49.0066C35.2825 48.0861 36.157 47.2568 37.1696 46.6579Z" fill="#010101" stroke="#010101" stroke-width="0.09375"/>
<path d="M45.096 46.6274C45.7104 46.3385 46.4434 46.9748 46.2915 47.6392C46.2524 48.1784 45.7116 48.3808 45.3445 48.6592C43.7474 49.8569 42.4932 51.6933 42.3862 53.7543C42.3068 55.6152 43.1502 57.3674 44.1996 58.8412C44.539 59.378 45.0798 59.7523 45.3675 60.3278C46.0775 61.5782 46.0913 63.1093 45.7346 64.4743C45.1972 66.554 43.9867 68.3763 42.6428 70.0068C42.3516 70.3846 41.7464 70.4326 41.4023 70.1039C41.0353 69.8103 40.9685 69.2033 41.2907 68.85C42.3908 67.478 43.431 65.9972 43.9522 64.2883C44.2698 63.2356 44.325 62.0121 43.7336 61.046C43.5886 60.777 43.3147 60.6249 43.1295 60.3921C41.7648 58.6622 40.6889 56.5837 40.5819 54.3321C40.4623 52.3214 41.2781 50.3505 42.5426 48.8346C43.2722 47.9737 44.1098 47.1748 45.096 46.6274Z" fill="#010101" stroke="#010101" stroke-width="0.09375"/>
<path d="M60.6348 46.672C61.0363 46.5048 61.5599 46.6229 61.8027 47.003C62.0374 47.444 61.9097 48.0639 61.469 48.3201C59.896 49.3822 58.536 50.9448 58.1229 52.8596C57.7685 54.4141 58.1988 56.0352 58.9283 57.4108C59.384 58.2471 59.8983 59.0647 60.5738 59.7361C61.4517 60.7841 61.7175 62.2497 61.5231 63.5866C61.1997 65.8476 59.9708 67.8431 58.5935 69.5976C58.3542 69.8842 58.1309 70.2666 57.727 70.3123C57.2104 70.4175 56.6926 69.9473 56.6984 69.4221C56.6776 69.0163 57.0113 68.739 57.2265 68.4408C58.2345 67.1378 59.1631 65.7178 59.6107 64.1071C59.8811 63.0638 59.9282 61.845 59.2839 60.9291C57.6707 59.0156 56.3474 56.6762 56.2312 54.1041C56.1173 52.3683 56.7973 50.6735 57.7984 49.2979C58.5751 48.2604 59.5198 47.3235 60.6348 46.672Z" fill="#010101" stroke="#010101" stroke-width="0.09375"/>
<path d="M93.1481 46.5C93.1481 71.6174 72.5317 92 47.0741 92C21.6165 92 1 71.6174 1 46.5C1 21.3826 21.6165 1 47.0741 1C72.5317 1 93.1481 21.3826 93.1481 46.5Z" stroke="#EB8D07" stroke-width="2"/>
</svg>
