<svg width="95" height="94" viewBox="0 0 95 94" fill="none" xmlns="http://www.w3.org/2000/svg">
<path d="M63.8377 18.5136C64.5187 18.3142 65.2124 18.8015 65.3654 19.4714C66.9016 19.161 68.4294 18.8085 69.9655 18.4982C70.6367 18.3395 71.2504 18.8521 71.4203 19.4798C72.7936 19.1708 74.1739 18.8956 75.5472 18.5866C75.9446 18.501 76.3869 18.3914 76.7688 18.5965C77.2182 18.8029 77.4765 19.3028 77.4498 19.7901C77.4498 38.2413 77.4512 56.6953 77.4484 75.1466C77.4765 75.6367 77.2196 76.1394 76.766 76.3486C76.4346 76.5242 76.0485 76.4568 75.7002 76.3838C74.2736 76.0706 72.8441 75.7729 71.4175 75.4611C71.2518 76.072 70.6676 76.5846 70.0091 76.4455C68.4602 76.1394 66.9199 75.7897 65.3767 75.4611C65.2334 75.8108 65.0565 76.1914 64.683 76.3472C64.2042 76.5888 63.6706 76.3781 63.1791 76.2897C57.8067 75.1311 52.4329 73.9768 47.0563 72.8323C46.5859 72.748 46.1618 72.3857 46.0733 71.9068C45.9989 71.3956 46.0424 70.8775 46.0354 70.3635C46.0354 54.7293 46.0368 39.0952 46.034 23.461C45.9666 22.8248 46.4174 22.2013 47.0577 22.1072C52.6533 20.9206 58.2434 19.7073 63.8377 18.5136ZM48.452 24.2797C48.4534 39.7397 48.452 55.1998 48.452 70.6598C53.2866 71.6877 58.1156 72.7354 62.9488 73.7619C62.9516 56.2333 62.9502 38.7048 62.9502 21.1762C58.117 22.2069 53.2852 23.2518 48.452 24.2797ZM65.3682 21.95C65.3696 38.9646 65.3682 55.9777 65.3682 72.9909C66.5772 73.2395 67.7834 73.5063 68.9924 73.7633C68.9924 56.2347 68.9924 38.7062 68.991 21.1776C67.7834 21.4346 66.5772 21.7 65.3682 21.95ZM71.4076 21.95C71.4076 38.9632 71.409 55.9749 71.4062 72.9881C72.6152 73.2451 73.8242 73.5021 75.0318 73.7647C75.0332 56.2347 75.0332 38.7062 75.0318 21.1762C73.8228 21.4332 72.618 21.7014 71.4076 21.95Z" fill="black" stroke="black" stroke-width="0.09375"/>
<path d="M33.7662 25.795C34.1902 25.6559 34.6929 25.7472 35.0075 26.0744C38.9083 30.0627 41.6521 35.1575 42.8723 40.5992C43.4901 43.353 43.7541 46.1925 43.6081 49.011C43.6011 49.8143 42.6631 50.3788 41.9427 50.0446C41.3628 49.8241 41.1255 49.1598 41.2069 48.5813C41.5159 41.137 38.7903 33.5861 33.658 28.1626C33.38 27.8495 33.0191 27.5475 32.9686 27.1052C32.8731 26.5519 33.2298 25.9621 33.7662 25.795Z" fill="black" stroke="black" stroke-width="0.09375"/>
<path d="M28.7041 30.8349C29.138 30.6579 29.6688 30.7675 29.9917 31.1087C33.4952 34.6813 35.7377 39.4306 36.3836 44.385C37.3005 51.0387 35.2939 58.0714 30.8483 63.1312C30.4439 63.5496 30.0985 64.1507 29.4666 64.2293C28.7841 64.3431 28.0933 63.7561 28.1017 63.0638C28.0666 62.6102 28.3755 62.2493 28.6634 61.9431C31.9801 58.3663 33.9192 53.5847 34.1594 48.7216C34.4753 43.0818 32.4884 37.3186 28.6241 33.1773C28.3587 32.881 28.0231 32.5945 27.9571 32.1816C27.8391 31.6269 28.1775 31.0329 28.7041 30.8349Z" fill="black" stroke="black" stroke-width="0.09375"/>
<path d="M24.4752 35.2923C24.9232 35.114 25.4582 35.2446 25.7825 35.5971C28.4842 38.3636 30.1496 42.092 30.495 45.937C30.9429 50.5221 29.505 55.2785 26.4973 58.7808C26.1167 59.1909 25.7657 59.7568 25.1549 59.8158C24.4514 59.9183 23.7647 59.2793 23.8167 58.5687C23.8153 58.1432 24.1144 57.8174 24.3826 57.5225C26.927 54.7462 28.2665 50.9476 28.1612 47.1938C28.0798 43.6466 26.7065 40.1232 24.2773 37.5238C24.0512 37.2696 23.7858 37.0126 23.7212 36.6643C23.5962 36.1012 23.936 35.4903 24.4752 35.2923Z" fill="black" stroke="black" stroke-width="0.09375"/>
<path d="M20.1341 39.7974C20.6073 39.5488 21.2153 39.6879 21.5664 40.0825C23.5645 42.1398 24.6331 45.0355 24.5405 47.8946C24.4731 50.5249 23.4311 53.1369 21.5987 55.0341C21.1465 55.5341 20.283 55.5228 19.8435 55.0131C19.3955 54.5525 19.4433 53.7647 19.8968 53.3251C21.1339 51.9896 21.9174 50.2497 22.0887 48.4367C22.3289 46.1421 21.5987 43.7491 20.0611 42.0218C19.8364 41.755 19.5598 41.5022 19.484 41.1469C19.3548 40.6175 19.6427 40.0305 20.1341 39.7974Z" fill="black" stroke="black" stroke-width="0.09375"/>
<path d="M41.3581 52.6157C42.136 52.245 43.0979 52.9415 43.0277 53.7883C43.0178 54.6674 41.9141 55.2586 41.1854 54.7502C40.3611 54.2981 40.4692 52.9317 41.3581 52.6157Z" fill="black" stroke="black" stroke-width="0.09375"/>
<path d="M40.078 57.2234C40.9612 56.8709 41.9638 57.8441 41.6015 58.7345C40.2591 62.2916 38.2343 65.5889 35.6688 68.3961C35.3613 68.7303 35.0496 69.1474 34.5623 69.2022C33.901 69.3257 33.227 68.7921 33.1764 68.1265C33.1217 67.715 33.3407 67.3401 33.6145 67.055C36.048 64.4654 37.9801 61.4055 39.265 58.0927C39.3956 57.7023 39.668 57.3428 40.078 57.2234Z" fill="black" stroke="black" stroke-width="0.09375"/>
<path d="M94 47C94 72.3951 73.1912 93 47.5 93C21.8088 93 1 72.3951 1 47C1 21.6049 21.8088 1 47.5 1C73.1912 1 94 21.6049 94 47Z" stroke="#EB8D07" stroke-width="2"/>
</svg>
