<svg width="95" height="93" viewBox="0 0 95 93" fill="none" xmlns="http://www.w3.org/2000/svg">
<path d="M93.1481 46.5C93.1481 71.6174 72.5317 92 47.0741 92C21.6165 92 1 71.6174 1 46.5C1 21.3826 21.6165 1 47.0741 1C72.5317 1 93.1481 21.3826 93.1481 46.5Z" stroke="#EB8D07" stroke-width="2"/>
<path d="M45.2839 29.0956C41.9372 29.489 38.8193 30.9941 36.4296 33.3699C34.0399 35.7457 32.5166 38.8548 32.1038 42.1992C31.8533 44.2333 32.0255 46.2973 32.6096 48.2619C33.1937 50.2264 34.1772 52.0492 35.4983 53.6162C37.8232 56.5008 39.0618 60.11 38.9983 63.8144V64.2781C38.6953 64.4523 38.4435 64.7031 38.268 65.0053C38.0925 65.3075 37.9995 65.6505 37.9983 65.9999V67.9999C37.9995 68.3494 38.0925 68.6924 38.268 68.9946C38.4435 69.2968 38.6953 69.5476 38.9983 69.7217V69.9999C39.0004 70.9009 39.3066 71.7749 39.8673 72.4801C40.4281 73.1854 41.2105 73.6807 42.0878 73.8857C42.2929 75.039 42.8974 76.0832 43.7952 76.8355C44.693 77.5877 45.827 78 46.9983 78C48.1696 78 49.3036 77.5877 50.2014 76.8355C51.0992 76.0832 51.7037 75.039 51.9088 73.8857C52.7861 73.6807 53.5685 73.1854 54.1293 72.4801C54.69 71.7749 54.9962 70.9009 54.9983 69.9999V69.7217C55.3013 69.5476 55.5531 69.2968 55.7286 68.9946C55.9042 68.6924 55.9972 68.3494 55.9983 67.9999V65.9999C55.9972 65.6505 55.9042 65.3075 55.7286 65.0053C55.5531 64.7031 55.3013 64.4523 54.9983 64.2781V63.7802C55.0543 59.9212 56.407 56.1932 58.8386 53.1962C60.8959 50.5733 62.0091 47.3334 61.9983 43.9999C61.9982 41.8854 61.5512 39.7947 60.6864 37.865C59.8216 35.9353 58.5587 34.2102 56.9805 32.8029C55.4022 31.3956 53.5443 30.3378 51.5285 29.6989C49.5128 29.06 47.3847 28.8544 45.2839 29.0956ZM46.9983 75.9999C46.3799 75.998 45.7773 75.8048 45.2732 75.4467C44.769 75.0886 44.3881 74.5832 44.1826 73.9999H49.814C49.6086 74.5832 49.2276 75.0886 48.7235 75.4467C48.2193 75.8048 47.6167 75.998 46.9983 75.9999ZM50.9983 71.9999H42.9983C42.4681 71.9993 41.9597 71.7884 41.5848 71.4135C41.2098 71.0385 40.9989 70.5302 40.9983 69.9999H52.9983C52.9977 70.5302 52.7868 71.0385 52.4119 71.4135C52.0369 71.7884 51.5286 71.9993 50.9983 71.9999ZM39.9983 67.9999V65.9999H53.9983L53.9998 67.9999H39.9983ZM59.9983 43.9999C60.0079 46.8874 59.0437 49.6938 57.2615 51.9658C54.5543 55.3136 53.0526 59.4751 52.9983 63.7802V63.9999H47.9983V57.9999C47.9983 57.8686 47.9724 57.7386 47.9222 57.6173C47.8719 57.496 47.7982 57.3858 47.7053 57.2929L44.3626 53.9501C43.9288 53.5187 43.5848 53.0055 43.3507 52.4403C43.1165 51.8751 42.9967 51.269 42.9983 50.6572C42.9984 50.483 43.0676 50.316 43.1908 50.1927C43.3139 50.0695 43.4809 50.0002 43.655 49.9999H44.1116C44.2203 50 44.3274 50.0271 44.4231 50.0787C44.5188 50.1304 44.6002 50.205 44.6599 50.2958L44.7879 50.4863C45.0302 50.8501 45.3586 51.1485 45.7438 51.3549C46.1291 51.5614 46.5594 51.6696 46.9966 51.6699C47.4337 51.6702 47.8642 51.5626 48.2497 51.3566C48.6353 51.1506 48.9641 50.8527 49.2069 50.4892L49.3387 50.2929C49.3985 50.2028 49.4797 50.1288 49.575 50.0777C49.6703 50.0266 49.7769 49.9999 49.885 49.9999H50.3416C50.5158 50.0002 50.6827 50.0695 50.8059 50.1927C50.929 50.316 50.9982 50.483 50.9983 50.6572C50.9999 51.2689 50.8802 51.875 50.6461 52.4402C50.412 53.0054 50.0682 53.5186 49.6345 53.9502L48.2913 55.2929L49.7053 56.7069L51.0491 55.3642C51.6688 54.7473 52.1602 54.0137 52.4947 53.2057C52.8293 52.3978 53.0005 51.5316 52.9983 50.6572C52.9975 49.9528 52.7174 49.2774 52.2193 48.7793C51.7213 48.2811 51.046 48.0009 50.3416 47.9999H49.885C49.4481 47.9993 49.0178 48.1068 48.6325 48.3128C48.2471 48.5188 47.9187 48.8169 47.6765 49.1806L47.5447 49.3769C47.4847 49.4672 47.4032 49.5413 47.3075 49.5924C47.2119 49.6435 47.105 49.6702 46.9965 49.6699C46.8881 49.6696 46.7814 49.6424 46.686 49.5908C46.5906 49.5391 46.5095 49.4646 46.45 49.374L46.322 49.1835C46.0799 48.8191 45.7513 48.5204 45.3656 48.3138C44.9799 48.1073 44.5491 47.9995 44.1116 47.9999H43.655C42.9506 48.0009 42.2754 48.2811 41.7773 48.7793C41.2793 49.2774 40.9991 49.9528 40.9983 50.6572C40.9961 51.5317 41.1673 52.3979 41.502 53.2058C41.8366 54.0138 42.3281 54.7474 42.948 55.3642L45.9983 58.414V63.9999H40.9983V63.8144C41.062 59.6399 39.6577 55.5757 37.0305 52.331C35.6915 50.7286 34.7582 48.8272 34.3099 46.7877C33.8615 44.7482 33.9112 42.6306 34.4548 40.6144C34.9984 38.5982 36.0199 36.7427 37.4327 35.2049C38.8455 33.6672 40.6081 32.4926 42.5711 31.7805C44.5342 31.0684 46.64 30.8399 48.7101 31.1143C50.7802 31.3887 52.7537 32.1579 54.4635 33.3567C56.1733 34.5556 57.569 36.1488 58.5325 38.0015C59.4959 39.8542 59.9987 41.9117 59.9983 43.9999Z" fill="black"/>
<path d="M29.4431 57.8965C30.5846 57.3672 31.817 57.0619 33.0735 56.9971C33.6883 56.95 34.3058 56.95 34.9207 56.9971L35.0799 55.003C34.3633 54.9489 33.6436 54.9489 32.927 55.003C31.4147 55.0854 29.9325 55.4584 28.5613 56.1016C26.6961 57.0951 25.1633 58.6139 24.1526 60.4698C23.6608 61.2737 23.2506 62.1247 22.9281 63.0102C21.5464 62.9357 20.1814 63.3401 19.0633 64.1552C17.9452 64.9703 17.1425 66.1462 16.7908 67.4844L16.0325 70.3877C15.9993 70.5148 15.9914 70.6473 16.0094 70.7774C16.0274 70.9076 16.0709 71.0329 16.1373 71.1462C16.2037 71.2596 16.2918 71.3588 16.3966 71.4381C16.5013 71.5174 16.6207 71.5753 16.7478 71.6084L17.7148 71.8609L17.2097 73.7959L19.1453 74.3018L19.6505 72.3664L23.5201 73.3768L23.0149 75.3115L24.9504 75.8174L25.4558 73.8822L26.4231 74.1348C26.5057 74.156 26.5907 74.1668 26.676 74.167C26.8971 74.1669 27.1119 74.0935 27.2868 73.9583C27.4617 73.8232 27.5869 73.6338 27.6428 73.42L28.4016 70.5176C28.7648 69.1162 28.6095 67.6309 27.9645 66.3349C27.3195 65.0389 26.2281 64.0194 24.8912 63.4642C25.154 62.7883 25.4767 62.1372 25.8552 61.5186C26.6676 59.9836 27.9159 58.7234 29.4431 57.8965ZM26.4666 70.0117L25.9607 71.9473L18.2205 69.9258L18.7259 67.9903C18.9939 66.9638 19.6588 66.0858 20.5742 65.5495C21.4895 65.0133 22.5805 64.8626 23.607 65.1306C24.6334 65.3987 25.5114 66.0636 26.0477 66.9789C26.584 67.8943 26.7346 68.9853 26.4666 70.0117Z" fill="black"/>
<path d="M61.372 37.2138L62.6083 38.7861C64.4311 37.3539 65.898 35.5197 66.8944 33.4267C67.0671 33.0611 67.2059 32.6804 67.3478 32.3012C67.3713 32.3028 67.3932 32.3115 67.4169 32.3115C67.452 32.3115 67.487 32.3095 67.5219 32.3056C67.7953 32.2773 74.2485 31.5527 76.8246 27.2197C79.4018 22.8867 76.9555 16.871 76.8505 16.6171C76.7685 16.4176 76.6239 16.2501 76.4384 16.1398C76.2529 16.0296 76.0367 15.9825 75.8222 16.0058C75.5575 16.0332 69.5139 16.7223 66.7896 20.6958C64.1987 17.3645 58.8218 17.3095 58.5917 17.3095H58.5897C58.3745 17.3095 58.165 17.379 57.9923 17.5076C57.8197 17.6362 57.6933 17.8171 57.6317 18.0234C57.5648 18.246 56.0272 23.5244 58.5883 26.958C60.5132 29.5385 64.1134 30.21 65.8594 30.3861C65.6691 31.1373 65.4101 31.8694 65.0858 32.5732C64.2223 34.3857 62.9512 35.974 61.372 37.2138ZM68.2382 22.1132C69.8407 19.4179 73.6298 18.4277 75.2621 18.1171C75.7694 19.7001 76.7084 23.5019 75.1059 26.1982C73.9164 28.198 71.5247 29.2569 69.7021 29.7983L69.8202 29.5497C71.1845 26.5214 72.784 23.6046 74.6039 20.8261L72.9555 19.6933C71.0745 22.5586 69.4221 25.5676 68.0136 28.6923C67.9355 28.8569 67.8617 29.0123 67.7894 29.1641C67.3224 27.3008 66.9185 24.3336 68.2382 22.1132ZM65.3625 25.2493C64.8432 24.5865 64.3023 23.942 63.7377 23.3251C63.0844 22.6113 62.3905 21.9169 61.6752 21.2626L60.3246 22.7372C60.997 23.3525 61.6488 24.0048 62.2621 24.6747C63.2843 25.7991 64.2229 26.9966 65.0705 28.2577C63.5272 27.9874 61.3661 27.3365 60.1918 25.7626C58.7221 23.7919 59.0898 20.7636 59.369 19.3583C60.7939 19.496 63.7982 20.0175 65.2694 21.9892C65.4643 22.2547 65.6282 22.5415 65.758 22.8441C65.5285 23.6267 65.3957 24.4344 65.3625 25.2493Z" fill="black"/>
</svg>
