<svg width="49" height="36" viewBox="0 0 49 36" fill="none" xmlns="http://www.w3.org/2000/svg">
<path d="M45.4811 0H3.49854C2.57068 0 1.6808 0.368511 1.0247 1.02446C0.368596 1.68041 0 2.57007 0 3.49774V31.4796C0 32.4073 0.368596 33.297 1.0247 33.953C1.6808 34.6088 2.57068 34.9774 3.49854 34.9774H45.4811C46.409 34.9774 47.2989 34.6088 47.9549 33.953C48.6111 33.297 48.9796 32.4073 48.9796 31.4796V3.49774C48.9796 2.57007 48.6111 1.68041 47.9549 1.02446C47.2989 0.368511 46.409 0 45.4811 0ZM41.6327 3.49774L24.4899 15.355L7.34695 3.49774H41.6327ZM3.49854 31.4796V5.08921L23.4928 18.9227C23.7855 19.1259 24.1334 19.2347 24.4899 19.2347C24.8462 19.2347 25.1941 19.1259 25.487 18.9227L45.4811 5.08921V31.4796H3.49854Z" fill="white"/>
</svg>
