<svg width="41" height="42" viewBox="0 0 41 42" fill="none" xmlns="http://www.w3.org/2000/svg">
<path fill-rule="evenodd" clip-rule="evenodd" d="M29.8938 24.7841C29.3822 24.5273 26.8744 23.2899 26.4074 23.1176C25.9406 22.947 25.6007 22.8626 25.2591 23.3761C24.9193 23.8862 23.9425 25.0408 23.6455 25.3821C23.3469 25.725 23.0499 25.7663 22.54 25.5113C22.0303 25.2528 20.3857 24.7133 18.4376 22.9695C16.9218 21.6116 15.8971 19.9348 15.6001 19.4212C15.3031 18.9095 15.5674 18.632 15.8233 18.3769C16.0533 18.1478 16.333 17.779 16.5887 17.4808C16.8446 17.181 16.9286 16.9673 17.0986 16.6244C17.2703 16.2833 17.1845 15.9851 17.0557 15.7283C16.9286 15.4716 15.9091 12.9504 15.4834 11.9251C15.0697 10.9273 14.649 11.0634 14.3366 11.0462C14.038 11.0324 13.6981 11.029 13.3582 11.029C13.0183 11.029 12.4656 11.1565 11.9987 11.67C11.5301 12.1818 10.2135 13.4209 10.2135 15.942C10.2135 18.4614 12.0399 20.8964 12.2957 21.2393C12.5514 21.5805 15.8919 26.7537 21.0089 28.9716C22.2276 29.4989 23.1769 29.8143 23.9168 30.0487C25.1389 30.4398 26.2512 30.3847 27.1301 30.2519C28.1086 30.1055 30.1478 29.0129 30.5736 27.817C30.9975 26.6211 30.9975 25.5957 30.8705 25.3821C30.7434 25.1683 30.4035 25.0408 29.8921 24.7841H29.8938ZM20.5866 37.5414H20.5798C17.5405 37.5419 14.557 36.7217 11.9421 35.1667L11.3241 34.7979L4.90076 36.4901L6.6156 30.2037L6.21221 29.5592C4.51306 26.844 3.61385 23.7014 3.6185 20.4949C3.62193 11.1031 11.2331 3.46211 20.5935 3.46211C25.1252 3.46211 29.3857 5.23707 32.5888 8.45613C34.1687 10.0356 35.4209 11.914 36.273 13.9825C37.1251 16.0509 37.5602 18.2685 37.5531 20.507C37.5496 29.8987 29.9385 37.5414 20.5866 37.5414ZM35.0263 6.01082C33.135 4.09958 30.8846 2.58417 28.4058 1.55239C25.9268 0.520606 23.2685 -0.00702445 20.5849 7.06151e-05C9.33462 7.06151e-05 0.175089 9.19369 0.171656 20.4932C0.16994 24.1052 1.10889 27.6309 2.89583 30.7379L0 41.3585L10.8212 38.5082C13.8147 40.1455 17.1692 41.0034 20.578 41.0034H20.5866C31.8369 41.0034 40.9964 31.8099 40.9999 20.5086C41.0082 17.8156 40.4845 15.1478 39.4592 12.6592C38.4338 10.1707 36.9272 7.91101 35.0263 6.01082Z" fill="white"/>
</svg>
